{"title":"Revenge.of.the.Bridesmaids.2010.HDTVRip.XviD-SiSO","uid":8897315,"size":731011337,"categoryP":"video","categoryS":"movies","magnet":"?xt=urn:btih:27013420ac79344ce31f18597266213576e9cc8f&amp;dn=Revenge.of.the.Bridesmaids.2010.HDTVRip.XviD-SiSO&amp;tr=udp%3A%2F%2Ftracker.openbittorrent.com%3A80&amp;tr=udp%3A%2F%2Fopen.demonii.com%3A1337&amp;tr=udp%3A%2F%2Ftracker.coppersurfer.tk%3A6969&amp;tr=udp%3A%2F%2Fexodus.desync.com%3A6969","seeders":0,"leechers":1,"uploader":"R0thschild","files":3,"time":1378687951,"description":"iNFO: &lt;a href=&quot;\nhttp://piratebg.com/index.php?page=torrent-details&amp;id=27013420ac79344ce31f18597266213576e9cc8f&quot; rel=&quot;nofollow&quot; target=&quot;_NEW&quot;&gt;\nhttp://piratebg.com/index.php?page=torrent-details&amp;id=27013420ac79344ce31f18597266213576e9cc8f&lt;/a&gt;\n\nGeneral\n\nComplete name                            : Revenge.of.the.Bridesmaids.2010.HDTVRip.XviD.BGAUDiO-SiSO.avi\n\nFormat                                   : AVI\n\nFormat/Info                              : Audio Video Interleave\n\nFormat profile                           : OpenDML\n\nFormat settings                          : rec\n\nFile size                                : 697 MiB\n\nDuration                                 : 1h 22mn\n\nOverall bit rate                         : 1 179 Kbps\n\nWriting application                      : AVI-Mux GUI 1.17.8.3, Feb 16 201019:42:50\n\n\n\nVideo\n\nID                                       : 0\n\nFormat                                   : MPEG-4 Visual\n\nFormat profile                           : Advanced Simple@L5\n\nFormat settings, BVOP                    : 2\n\nFormat settings, QPel                    : No\n\nFormat settings, GMC                     : No warppoints\n\nFormat settings, Matrix                  : Default (H.263)\n\nMuxing mode                              : Packed bitstream\n\nCodec ID                                 : XVID\n\nCodec ID/Hint                            : XviD\n\nDuration                                 : 1h 22mn\n\nBit rate                                 : 1 043 Kbps\n\nWidth                                    : 624 pixels\n\nHeight                                   : 352 pixels\n\nDisplay aspect ratio                     : 16:9\n\nFrame rate                               : 25.000 fps\n\nOriginal frame rate                      : 23.976 fps\n\nColor space                              : YUV\n\nChroma subsampling                       : 4:2:0\n\nBit depth                                : 8 bits\n\nScan type                                : Progressive\n\nCompression mode                         : Lossy\n\nBits/(Pixel*Frame)                       : 0.190\n\nStream size                              : 616 MiB (88%)\n\nWriting library                          : XviD 1.2.1 (UTC 2008-12-04)\n\n\n\nAudio\n\nID                                       : 1\n\nFormat                                   : MPEG Audio\n\nFormat version                           : Version 1\n\nFormat profile                           : Layer 3\n\nMode                                     : Joint stereo\n\nMode extension                           : MS Stereo\n\nCodec ID                                 : 55\n\nCodec ID/Hint                            : MP3\n\nDuration                                 : 1h 22mn\n\nBit rate mode                            : Constant\n\nBit rate                                 : 128 Kbps\n\nChannel(s)                               : 2 channels\n\nSampling rate                            : 44.1 KHz\n\nCompression mode                         : Lossy\n\nStream size                              : 75.7 MiB (11%)\n\nAlignment                                : Aligned on interleaves\n\nInterleave, duration                     : 26 ms (0.65 video frame)\n\nInterleave, preload duration             : 182 ms\n\nWriting library                          : LAME3.97","torrent":{"xt":"urn:btih:27013420ac79344ce31f18597266213576e9cc8f","amp;dn":"Revenge.of.the.Bridesmaids.2010.HDTVRip.XviD-SiSO","amp;tr":["udp%3A%2F%2Ftracker.openbittorrent.com%3A80","udp%3A%2F%2Fopen.demonii.com%3A1337","udp%3A%2F%2Ftracker.coppersurfer.tk%3A6969","udp%3A%2F%2Fexodus.desync.com%3A6969"],"infoHash":"27013420ac79344ce31f18597266213576e9cc8f","infoHashBuffer":{"type":"Buffer","data":[39,1,52,32,172,121,52,76,227,31,24,89,114,102,33,53,118,233,204,143]},"announce":[],"urlList":[]}}